<svg xmlns="http://www.w3.org/2000/svg" viewBox="0 0 1338.08 692"><defs><style>.cls-1{fill:#fff;}.cls-2{fill:#539eb8;}</style></defs><title>Element 1</title><g id="Ebene_2" data-name="Ebene 2"><g id="Ebene_1-2" data-name="Ebene 1"><polygon class="cls-1" points="507.56 0 625.99 136.84 604.7 157.12 507.4 68.86 234.46 318.13 507.56 0"/><polygon class="cls-1" points="1104.44 318.13 831.51 68.86 734.47 157.41 713.29 137.24 831.34 0 1104.44 318.13"/><polygon class="cls-2" points="842.03 418.48 777.19 550.63 711.72 418.48 707.75 418.48 684.24 582.68 701.73 582.68 717.4 467.74 774.47 582.68 779.72 582.68 836.12 468.62 851.87 582.68 869.59 582.68 845.96 418.48 842.03 418.48"/><path class="cls-2" d="M977.82,414.39a84.56,84.56,0,0,0-74,43.08,87.81,87.81,0,0,0-11.44,43.83c0,23.55,8.45,43.9,25.12,60.49s37.41,25,61.62,25c23.92,0,44.49-8.45,61.12-25.11s25.07-37.23,25.07-61.14c0-24.13-8.46-44.74-25.13-61.26S1002.55,414.39,977.82,414.39Zm35.28,145.76a68.94,68.94,0,0,1-34.56,9.05,65.58,65.58,0,0,1-47.76-19.69C917.64,536.45,911,520.21,911,501.25a69.86,69.86,0,0,1,9-35,67,67,0,0,1,24.89-25A66.3,66.3,0,0,1,978.54,432a68.11,68.11,0,0,1,34.29,9.28,66.83,66.83,0,0,1,25.05,24.7,68.19,68.19,0,0,1,8.89,34.53,69.91,69.91,0,0,1-8.9,34.93A65.16,65.16,0,0,1,1013.1,560.15Z"/><polygon class="cls-2" points="1207.87 541.49 1101.07 418.48 1096.24 418.48 1096.24 582.68 1114.81 582.68 1114.81 461.18 1220.73 582.68 1225.67 582.68 1225.67 418.48 1207.87 418.48 1207.87 541.49"/><polygon class="cls-2" points="1247.31 418.48 1247.31 436.16 1283.53 436.16 1283.53 582.68 1301.86 582.68 1301.86 436.16 1338.08 436.16 1338.08 418.48 1247.31 418.48"/><polygon class="cls-1" points="842.03 418.48 777.19 550.63 711.72 418.48 707.75 418.48 684.24 582.68 701.73 582.68 717.4 467.74 774.47 582.68 779.72 582.68 836.12 468.62 851.87 582.68 869.59 582.68 845.96 418.48 842.03 418.48"/><path class="cls-1" d="M977.82,414.39a84.56,84.56,0,0,0-74,43.08,87.81,87.81,0,0,0-11.44,43.83c0,23.55,8.45,43.9,25.12,60.49s37.41,25,61.62,25c23.92,0,44.49-8.45,61.12-25.11s25.07-37.23,25.07-61.14c0-24.13-8.46-44.74-25.13-61.26S1002.55,414.39,977.82,414.39Zm35.28,145.76a68.94,68.94,0,0,1-34.56,9.05,65.58,65.58,0,0,1-47.76-19.69C917.64,536.45,911,520.21,911,501.25a69.86,69.86,0,0,1,9-35,67,67,0,0,1,24.89-25A66.3,66.3,0,0,1,978.54,432a68.11,68.11,0,0,1,34.29,9.28,66.83,66.83,0,0,1,25.05,24.7,68.19,68.19,0,0,1,8.89,34.53,69.91,69.91,0,0,1-8.9,34.93A65.16,65.16,0,0,1,1013.1,560.15Z"/><polygon class="cls-1" points="1207.87 541.49 1101.07 418.48 1096.24 418.48 1096.24 582.68 1114.81 582.68 1114.81 461.18 1220.73 582.68 1225.67 582.68 1225.67 418.48 1207.87 418.48 1207.87 541.49"/><polygon class="cls-1" points="1247.31 418.48 1247.31 436.16 1283.53 436.16 1283.53 582.68 1301.86 582.68 1301.86 436.16 1338.08 436.16 1338.08 418.48 1247.31 418.48"/><polygon class="cls-1" points="0 582.68 18.02 582.68 18.02 502.96 83.16 502.96 83.16 485.28 18.02 485.28 18.02 436.16 83.16 436.16 83.16 418.48 0 418.48 0 582.68"/><path class="cls-1" d="M189.3,501.94a40,40,0,0,0,18.23-15.54,44.44,44.44,0,0,0,6.37-23.8c0-10.78-3.12-20-9.26-27.38a42.87,42.87,0,0,0-24-14.51c-6.45-1.48-18.85-2.23-36.86-2.23H110.53v164.2h18V507.27h7.85l58.42,75.41h22.33l-58.42-75.43C171.56,507,181.85,505.25,189.3,501.94Zm6-39.4a26.73,26.73,0,0,1-4.23,14.7,24.26,24.26,0,0,1-11.75,9.54c-5.06,2-13,3-23.72,3l-27.1-.21V436.16h27.75c11,0,18.9.94,23.56,2.8a24,24,0,0,1,11.2,9.22A25.63,25.63,0,0,1,195.34,462.54Z"/><rect class="cls-1" x="244.58" y="418.48" width="18.01" height="164.2"/><path class="cls-1" d="M394.31,520.52H446a55.07,55.07,0,0,1-20.07,35.08c-11.34,9.24-25.42,13.93-41.84,13.93a77.56,77.56,0,0,1-37.56-9.34,69.25,69.25,0,0,1-26.83-25.61A66.53,66.53,0,0,1,310,500.2a65.15,65.15,0,0,1,9.37-33.51,67.67,67.67,0,0,1,26.43-25.12,74.76,74.76,0,0,1,36-9.27,79.5,79.5,0,0,1,31.17,6.83,95.59,95.59,0,0,1,29.48,20.08l.61.6,13.9-13.16-.68-.65c-11.58-11-23.64-19.1-35.83-24.09a103.16,103.16,0,0,0-39.2-7.52c-17.07,0-32.6,3.81-46.15,11.32a83.75,83.75,0,0,0-32.14,31.41,85.06,85.06,0,0,0-11.71,43.41,82.79,82.79,0,0,0,20.42,55.23c17.61,20.58,41.84,31,72,31,24.86,0,45-7.53,59.87-22.4s22.48-35.2,22.62-60.42v-.9H394.31Z"/><path class="cls-1" d="M573.47,414.39a84.56,84.56,0,0,0-74,43.08,87.81,87.81,0,0,0-11.44,43.83c0,23.55,8.45,43.9,25.13,60.49s37.39,25,61.61,25c23.93,0,44.49-8.45,61.12-25.11S661,524.44,661,500.52c0-24.12-8.45-44.73-25.12-61.26S598.19,414.39,573.47,414.39Zm35.29,145.76a69,69,0,0,1-34.56,9.05,65.58,65.58,0,0,1-47.76-19.69c-13.15-13.06-19.81-29.29-19.81-48.26a69.86,69.86,0,0,1,9-35,67,67,0,0,1,24.89-25A66.32,66.32,0,0,1,574.19,432a68.12,68.12,0,0,1,34.29,9.28,66.81,66.81,0,0,1,25.05,24.7,68.19,68.19,0,0,1,8.89,34.53,69.91,69.91,0,0,1-8.9,34.93A65.19,65.19,0,0,1,608.75,560.15Z"/><path class="cls-1" d="M4.28,638H9.65v19.75l21-19.75h7.07L12.48,661.66l27.24,29h-7L9.65,666.15v24.52H4.28Z"/><path class="cls-1" d="M47.76,638H53v31.78a63.85,63.85,0,0,0,.22,7.05,11.67,11.67,0,0,0,1.82,5.21,10.82,10.82,0,0,0,4.4,3.51,13.78,13.78,0,0,0,6,1.41,11.85,11.85,0,0,0,5-1.1,11.24,11.24,0,0,0,4-3.08A12.76,12.76,0,0,0,76.82,678a40,40,0,0,0,.53-8.24V638h5.26v31.78a38.83,38.83,0,0,1-1.37,11.4,15.47,15.47,0,0,1-5.51,7.57,15.75,15.75,0,0,1-10,3.22,19.15,19.15,0,0,1-10.91-3,14.7,14.7,0,0,1-6.09-8q-1-3.08-1-11.1Zm10.13-12.34a4.15,4.15,0,1,1-4.15,4.15,4.16,4.16,0,0,1,4.15-4.15Zm14.6,0a4.15,4.15,0,1,1-4.15,4.15,4.16,4.16,0,0,1,4.15-4.15Z"/><path class="cls-1" d="M95.5,638h5.26v22.08h26.8V638h5.26v52.64h-5.26v-25.4h-26.8v25.4H95.5Z"/><path class="cls-1" d="M145.63,638h5.26V685.6h20.25v5.08H145.63Z"/><path class="cls-1" d="M201,638l24.55,52.64h-5.68l-8.28-17.32H188.9l-8.2,17.32h-5.86L199.69,638Zm-.66,11.19-9,19h18Z"/><path class="cls-1" d="M233.73,690.67V638h1.15l35,40.36V638h5.19v52.64h-1.18l-34.75-39.86v39.86Z"/><path class="cls-1" d="M287.9,638h5.26V685.6h20.26v5.08H287.9Z"/><path class="cls-1" d="M343.26,638l24.55,52.64h-5.68l-8.28-17.32H331.17L323,690.67h-5.86L342,638Zm-.66,11.19-9,19h18Z"/><path class="cls-1" d="M426.74,646.88l-4.07,3.87a31.15,31.15,0,0,0-9.64-6.57,25.88,25.88,0,0,0-10.22-2.24A24.34,24.34,0,0,0,391,645a22.09,22.09,0,0,0-8.68,8.25,21.25,21.25,0,0,0-3.08,11,21.77,21.77,0,0,0,3.18,11.29,22.67,22.67,0,0,0,8.8,8.41A25.27,25.27,0,0,0,403.55,687a21,21,0,0,0,13.74-4.58A18,18,0,0,0,424,670.53H407.17v-5.08h22.69q-.07,12.2-7.25,19.38T403.41,692q-14.6,0-23.11-9.95a26.43,26.43,0,0,1-6.55-17.72,27.16,27.16,0,0,1,3.75-13.92,26.79,26.79,0,0,1,10.31-10.07,30.06,30.06,0,0,1,14.82-3.64,33,33,0,0,1,12.6,2.42A37.46,37.46,0,0,1,426.74,646.88Z"/><path class="cls-1" d="M439.92,638h30.16v5.15H445.18v16.5h24.69v5.15H445.18v20.69h24.69v5.15h-30Z"/><path class="cls-1" d="M479.21,690.67V638h1.15l35,40.36V638h5.19v52.64H519.4l-34.75-39.86v39.86Z"/><path class="cls-1" d="M549.59,668.71h19.68v4.37H549.59Z"/><path class="cls-1" d="M597.54,638h5.27v52.64h-5.27Z"/><path class="cls-1" d="M612.47,690.67,620,638h.86l21.4,43.19L663.45,638h.83l7.57,52.64H666.7L661.5,653l-18.61,37.64h-1.34l-18.84-37.94-5.17,37.94Z"/><path class="cls-1" d="M682.17,638h10.49q9,0,12.16.79a13.46,13.46,0,0,1,7.37,4.56,14.74,14.74,0,0,1,.07,17.36,13.69,13.69,0,0,1-7.69,4.6q-3.58.86-13.39.87h-3.75v24.47h-5.26Zm5.26,5.15V661l8.91.11a23.3,23.3,0,0,0,7.91-1,8.09,8.09,0,0,0,3.93-3.18,8.77,8.77,0,0,0,1.43-4.91,8.66,8.66,0,0,0-1.43-4.84,7.88,7.88,0,0,0-3.77-3.12q-2.34-.93-7.68-.93Z"/><path class="cls-1" d="M724.82,638h5.26v52.64h-5.26Z"/><path class="cls-1" d="M763.64,638l24.55,52.64h-5.68l-8.28-17.32H751.55l-8.2,17.32h-5.87L762.36,638ZM763,649.22l-9,19h18Z"/><path class="cls-1" d="M796.39,690.67V638h1.15l35,40.36V638h5.19v52.64h-1.18l-34.75-39.86v39.86Z"/><path class="cls-1" d="M845.34,643.19V638h28.85v5.15H862.45v47.49h-5.37V643.19Z"/><path class="cls-1" d="M881,638h5.26v52.64H881Z"/><path class="cls-1" d="M918.63,638H945v5.15H923.89v16.5H945v5.15H923.89v25.84h-5.26Z"/><path class="cls-1" d="M954.45,638h10.49q8.77,0,11.88.72a13.53,13.53,0,0,1,7.62,4.6,13.15,13.15,0,0,1,2.94,8.69,14,14,0,0,1-2,7.56,12.61,12.61,0,0,1-5.78,4.93q-3.75,1.67-10.37,1.7l18.93,24.44h-6.51l-18.93-24.44h-3v24.44h-5.26Zm5.26,5.15v17.9l9.07.07a22.47,22.47,0,0,0,7.79-1,8.07,8.07,0,0,0,3.94-3.2,8.94,8.94,0,0,0,1.42-4.92,8.49,8.49,0,0,0-1.43-4.81,8,8,0,0,0-3.76-3.1q-2.33-.93-7.75-.93Z"/><path class="cls-1" d="M997.89,638h5.26v52.64h-5.26Z"/><path class="cls-1" d="M1066,646.88l-4.08,3.87a31,31,0,0,0-9.64-6.57,25.82,25.82,0,0,0-10.22-2.24,24.34,24.34,0,0,0-11.79,3,22,22,0,0,0-8.68,8.25,21.25,21.25,0,0,0-3.08,11,21.69,21.69,0,0,0,3.18,11.29,22.61,22.61,0,0,0,8.8,8.41A25.27,25.27,0,0,0,1042.8,687a21,21,0,0,0,13.74-4.58,18.08,18.08,0,0,0,6.66-11.88h-16.78v-5.08h22.69q-.07,12.2-7.25,19.38t-19.2,7.17q-14.6,0-23.12-9.95a26.47,26.47,0,0,1-6.54-17.72,27.16,27.16,0,0,1,3.75-13.92,26.79,26.79,0,0,1,10.31-10.07,30,30,0,0,1,14.81-3.64,32.9,32.9,0,0,1,12.6,2.42A37.49,37.49,0,0,1,1066,646.88Z"/><path class="cls-1" d="M1104.19,636.71a27.33,27.33,0,0,1,20,8A27.67,27.67,0,0,1,1104.62,692a26.94,26.94,0,0,1-19.76-8,26.34,26.34,0,0,1-8.06-19.39,28.06,28.06,0,0,1,3.66-14.07,27.14,27.14,0,0,1,23.73-13.81Zm.23,5.12a21.71,21.71,0,0,0-11.07,3,22,22,0,0,0-8.17,8.2,22.84,22.84,0,0,0-2.94,11.49,22.13,22.13,0,0,0,22.18,22.31,22.53,22.53,0,0,0,11.34-3,21.29,21.29,0,0,0,8.14-8.13,22.83,22.83,0,0,0,2.92-11.46,22.29,22.29,0,0,0-2.92-11.34,21.84,21.84,0,0,0-8.23-8.11A22.26,22.26,0,0,0,1104.42,641.83Z"/><path class="cls-1" d="M1143.11,638h10.49q8.77,0,11.88.72a13.53,13.53,0,0,1,7.62,4.6A13.15,13.15,0,0,1,1176,652a14,14,0,0,1-2,7.56,12.61,12.61,0,0,1-5.78,4.93q-3.75,1.67-10.37,1.7l18.93,24.44h-6.51l-18.93-24.44h-3v24.44h-5.26Zm5.26,5.15v17.9l9.07.07a22.47,22.47,0,0,0,7.79-1,8.07,8.07,0,0,0,3.94-3.2,8.94,8.94,0,0,0,1.42-4.92,8.49,8.49,0,0,0-1.43-4.81,8,8,0,0,0-3.76-3.1q-2.33-.93-7.75-.93Z"/><path class="cls-1" d="M1186.55,638h5.26v52.64h-5.26Z"/><path class="cls-1" d="M1203.87,638h26.38v5.15h-21.12v16.5h21.12v5.15h-21.12v25.84h-5.26Z"/><path class="cls-1" d="M1239.45,638h30.16v5.15H1244.7v16.5h24.68v5.15H1244.7v20.69h24.68v5.15h-29.94Z"/><path class="cls-1" d="M1279,638h10.49q8.77,0,11.88.72a13.53,13.53,0,0,1,7.62,4.6,13.15,13.15,0,0,1,2.94,8.69,14,14,0,0,1-2,7.56,12.61,12.61,0,0,1-5.78,4.93q-3.75,1.67-10.37,1.7l18.93,24.44h-6.51l-18.93-24.44h-3v24.44H1279Zm5.26,5.15v17.9l9.07.07a22.47,22.47,0,0,0,7.79-1,8.07,8.07,0,0,0,3.94-3.2,9,9,0,0,0,1.42-4.92,8.49,8.49,0,0,0-1.43-4.81,8,8,0,0,0-3.76-3.1q-2.33-.93-7.75-.93Z"/><path class="cls-1" d="M1322.42,638h5.26v52.64h-5.26Z"/><polygon class="cls-1" points="669.43 38 945.66 358.61 669.43 107.11 393.24 358.61 669.43 38"/></g></g></svg>