<?xml version="1.0" encoding="utf-8"?>
<!-- Generator: Adobe Illustrator 21.0.0, SVG Export Plug-In . SVG Version: 6.00 Build 0)  -->
<svg version="1.1" id="Ebene_1" xmlns="http://www.w3.org/2000/svg" xmlns:xlink="http://www.w3.org/1999/xlink" x="0px" y="0px"
	 viewBox="0 0 300 155.1" style="enable-background:new 0 0 300 155.1;" xml:space="preserve">
<style type="text/css">
	.st0{fill:#FFFFFF;}
	.st1{fill:#539EB8;}
</style>
<title>Element 1</title>
<g id="Ebene_2">
	<g id="Ebene_1-2">
		<polygon class="st0" points="113.8,0 140.3,30.7 135.6,35.2 113.8,15.4 52.6,71.3 		"/>
		<polygon class="st0" points="247.6,71.3 186.4,15.4 164.7,35.3 159.9,30.8 186.4,0 		"/>
		<polygon class="st1" points="188.8,93.8 174.2,123.5 159.6,93.8 158.7,93.8 153.4,130.6 157.3,130.6 160.8,104.9 173.6,130.6 
			174.8,130.6 187.5,105.1 191,130.6 195,130.6 189.7,93.8 		"/>
		<path class="st1" d="M219.2,92.9c-6.9,0-13.2,3.7-16.6,9.7c-1.7,3-2.6,6.4-2.6,9.8c0,5.3,1.9,9.8,5.6,13.6s8.4,5.6,13.8,5.6
			c5.4,0,10-1.9,13.7-5.6c3.7-3.7,5.6-8.3,5.6-13.7c0-5.4-1.9-10-5.6-13.7S224.8,92.9,219.2,92.9z M227.1,125.6c-2.4,1.3-5,2-7.7,2
			c-4,0.1-7.9-1.5-10.7-4.4c-2.9-2.9-4.4-6.6-4.4-10.8c0-2.7,0.7-5.5,2-7.8c1.3-2.3,3.3-4.3,5.6-5.6c2.3-1.4,4.9-2.1,7.5-2.1
			c2.7,0,5.4,0.7,7.7,2.1c2.3,1.3,4.3,3.2,5.6,5.5c1.3,2.4,2,5,2,7.7c0,2.7-0.7,5.4-2,7.8C231.4,122.4,229.5,124.3,227.1,125.6z"/>
		<polygon class="st1" points="270.8,121.4 246.9,93.8 245.8,93.8 245.8,130.6 249.9,130.6 249.9,103.4 273.7,130.6 274.8,130.6 
			274.8,93.8 270.8,93.8 		"/>
		<polygon class="st1" points="279.6,93.8 279.6,97.8 287.8,97.8 287.8,130.6 291.9,130.6 291.9,97.8 300,97.8 300,93.8 		"/>
		<polygon class="st0" points="188.8,93.8 174.2,123.5 159.6,93.8 158.7,93.8 153.4,130.6 157.3,130.6 160.8,104.9 173.6,130.6 
			174.8,130.6 187.5,105.1 191,130.6 195,130.6 189.7,93.8 		"/>
		<path class="st0" d="M219.2,92.9c-6.9,0-13.2,3.7-16.6,9.7c-1.7,3-2.6,6.4-2.6,9.8c0,5.3,1.9,9.8,5.6,13.6s8.4,5.6,13.8,5.6
			c5.4,0,10-1.9,13.7-5.6c3.7-3.7,5.6-8.3,5.6-13.7c0-5.4-1.9-10-5.6-13.7S224.8,92.9,219.2,92.9z M227.1,125.6c-2.4,1.3-5,2-7.7,2
			c-4,0.1-7.9-1.5-10.7-4.4c-2.9-2.9-4.4-6.6-4.4-10.8c0-2.7,0.7-5.5,2-7.8c1.3-2.3,3.3-4.3,5.6-5.6c2.3-1.4,4.9-2.1,7.5-2.1
			c2.7,0,5.4,0.7,7.7,2.1c2.3,1.3,4.3,3.2,5.6,5.5c1.3,2.4,2,5,2,7.7c0,2.7-0.7,5.4-2,7.8C231.4,122.4,229.5,124.3,227.1,125.6z"/>
		<polygon class="st0" points="270.8,121.4 246.9,93.8 245.8,93.8 245.8,130.6 249.9,130.6 249.9,103.4 273.7,130.6 274.8,130.6 
			274.8,93.8 270.8,93.8 		"/>
		<polygon class="st0" points="279.6,93.8 279.6,97.8 287.8,97.8 287.8,130.6 291.9,130.6 291.9,97.8 300,97.8 300,93.8 		"/>
		<polygon class="st0" points="0,130.6 4,130.6 4,112.8 18.6,112.8 18.6,108.8 4,108.8 4,97.8 18.6,97.8 18.6,93.8 0,93.8 		"/>
		<path class="st0" d="M42.4,112.5c1.7-0.7,3.1-1.9,4.1-3.5c1-1.6,1.5-3.5,1.4-5.3c0-2.4-0.7-4.5-2.1-6.1c-1.4-1.7-3.3-2.8-5.4-3.3
			c-1.4-0.3-4.2-0.5-8.3-0.5h-7.5v36.8h4v-16.9h1.8l13.1,16.9h5l-13.1-16.9C38.5,113.7,40.8,113.3,42.4,112.5z M43.8,103.7
			c0,1.2-0.3,2.3-0.9,3.3c-0.6,1-1.6,1.7-2.6,2.1c-1.1,0.4-2.9,0.7-5.3,0.7l-6.1,0v-12H35c2.5,0,4.2,0.2,5.3,0.6
			c1,0.4,1.9,1.1,2.5,2.1C43.5,101.4,43.8,102.6,43.8,103.7L43.8,103.7z"/>
		<rect x="54.8" y="93.8" class="st0" width="4" height="36.8"/>
		<path class="st0" d="M88.4,116.7H100c-0.4,3.1-2.1,5.9-4.5,7.9c-2.5,2.1-5.7,3.1-9.4,3.1c-2.9,0-5.8-0.7-8.4-2.1
			c-2.5-1.3-4.6-3.3-6-5.7c-1.4-2.3-2.2-5-2.2-7.7c0-2.6,0.7-5.2,2.1-7.5c1.4-2.4,3.5-4.3,5.9-5.6c2.5-1.4,5.2-2.1,8.1-2.1
			c2.4,0,4.8,0.6,7,1.5c2.5,1.1,4.7,2.6,6.6,4.5l0.1,0.1l3.1-3l-0.2-0.1c-2.6-2.5-5.3-4.3-8-5.4c-2.8-1.1-5.8-1.7-8.8-1.7
			c-3.8,0-7.3,0.9-10.3,2.5c-3,1.6-5.5,4.1-7.2,7c-1.7,2.9-2.6,6.3-2.6,9.7c0,4.5,1.6,9,4.6,12.4c3.9,4.6,9.4,7,16.1,7
			c5.6,0,10.1-1.7,13.4-5c3.3-3.3,5-7.9,5.1-13.5v-0.2H88.4V116.7z"/>
		<path class="st0" d="M128.6,92.9c-6.9,0-13.2,3.7-16.6,9.7c-1.7,3-2.6,6.4-2.6,9.8c0,5.3,1.9,9.8,5.6,13.6s8.4,5.6,13.8,5.6
			c5.4,0,10-1.9,13.7-5.6c3.7-3.7,5.6-8.3,5.6-13.7c0-5.4-1.9-10-5.6-13.7C138.8,94.8,134.1,92.9,128.6,92.9z M136.5,125.6
			c-2.4,1.3-5,2-7.7,2c-4,0.1-7.9-1.5-10.7-4.4c-2.9-2.9-4.4-6.6-4.4-10.8c0-2.7,0.7-5.5,2-7.8c1.3-2.3,3.3-4.3,5.6-5.6
			c2.3-1.4,4.9-2.1,7.5-2.1c2.7,0,5.4,0.7,7.7,2.1c2.3,1.3,4.3,3.2,5.6,5.5c1.3,2.4,2,5,2,7.7c0,2.7-0.7,5.4-2,7.8
			C140.7,122.4,138.8,124.3,136.5,125.6L136.5,125.6z"/>
		<path class="st0" d="M1,143h1.2v4.4l4.7-4.4h1.6l-5.7,5.3l6.1,6.5H7.3l-5.2-5.5v5.5H1V143z"/>
		<path class="st0" d="M10.7,143h1.2v7.1c0,0.5,0,1.1,0,1.6c0,0.4,0.2,0.8,0.4,1.2c0.3,0.3,0.6,0.6,1,0.8c0.4,0.2,0.9,0.3,1.3,0.3
			c0.4,0,0.8-0.1,1.1-0.2c0.3-0.2,0.7-0.4,0.9-0.7c0.3-0.3,0.4-0.7,0.5-1.1c0.1-0.6,0.1-1.2,0.1-1.8V143h1.2v7.1
			c0,0.9-0.1,1.7-0.3,2.6c-0.2,0.7-0.7,1.3-1.2,1.7c-0.6,0.5-1.4,0.7-2.2,0.7c-0.9,0-1.7-0.2-2.4-0.7c-0.7-0.4-1.1-1.1-1.4-1.8
			c-0.1-0.5-0.2-1.3-0.2-2.5L10.7,143z M13,140.3c0.5,0,0.9,0.4,0.9,0.9s-0.4,0.9-0.9,0.9c-0.5,0-0.9-0.4-0.9-0.9
			C12,140.7,12.5,140.3,13,140.3z M16.3,140.3c0.5,0,0.9,0.4,0.9,0.9c0,0.5-0.4,0.9-0.9,0.9c-0.5,0-0.9-0.4-0.9-0.9
			C15.3,140.7,15.7,140.3,16.3,140.3z"/>
		<path class="st0" d="M21.4,143h1.2v5h6v-5h1.2v11.8h-1.2v-5.7h-6v5.7h-1.2V143z"/>
		<path class="st0" d="M32.7,143h1.2v10.7h4.5v1.1h-5.7V143z"/>
		<path class="st0" d="M45.1,143l5.5,11.8h-1.3l-1.9-3.9h-5.1l-1.8,3.9h-1.3l5.6-11.8H45.1z M44.9,145.5l-2,4.3h4L44.9,145.5z"/>
		<path class="st0" d="M52.4,154.8V143h0.3l7.8,9v-9h1.2v11.8h-0.3l-7.8-8.9v8.9L52.4,154.8z"/>
		<path class="st0" d="M64.5,143h1.2v10.7h4.5v1.1h-5.7V143z"/>
		<path class="st0" d="M77,143l5.5,11.8h-1.3l-1.9-3.9h-5.1l-1.8,3.9h-1.3l5.6-11.8H77z M76.8,145.5l-2,4.3h4L76.8,145.5z"/>
		<path class="st0" d="M95.7,145l-0.9,0.9c-0.6-0.6-1.4-1.1-2.2-1.5c-0.7-0.3-1.5-0.5-2.3-0.5c-0.9,0-1.8,0.2-2.6,0.7
			c-0.8,0.4-1.5,1.1-1.9,1.8c-0.5,0.7-0.7,1.6-0.7,2.5c0,0.9,0.2,1.8,0.7,2.5c0.5,0.8,1.2,1.4,2,1.9c0.8,0.5,1.8,0.7,2.8,0.7
			c1.1,0,2.2-0.3,3.1-1c0.8-0.7,1.4-1.6,1.5-2.7h-3.8v-1.1h5.1c0,1.8-0.6,3.3-1.6,4.3c-1.1,1.1-2.5,1.6-4.3,1.6
			c-2.2,0-3.9-0.7-5.2-2.2c-1-1.1-1.5-2.5-1.5-4c0-1.1,0.3-2.2,0.8-3.1c0.5-0.9,1.3-1.7,2.3-2.3c1-0.6,2.2-0.8,3.3-0.8
			c1,0,1.9,0.2,2.8,0.5C94.1,143.7,94.9,144.3,95.7,145z"/>
		<path class="st0" d="M98.6,143h6.8v1.2h-5.6v3.7h5.5v1.2h-5.5v4.6h5.5v1.2h-6.7L98.6,143z"/>
		<path class="st0" d="M107.4,154.8V143h0.3l7.8,9v-9h1.2v11.8h-0.3l-7.8-8.9v8.9L107.4,154.8z"/>
		<path class="st0" d="M123.2,149.9h4.4v1h-4.4V149.9z"/>
		<path class="st0" d="M134,143h1.2v11.8H134V143z"/>
		<path class="st0" d="M137.3,154.8L139,143h0.2l4.8,9.7l4.8-9.7h0.2l1.7,11.8h-1.2l-1.2-8.4l-4.2,8.4h-0.3l-4.2-8.5l-1.2,8.5
			L137.3,154.8z"/>
		<path class="st0" d="M152.9,143h2.4c1.3,0,2.3,0.1,2.7,0.2c0.6,0.1,1.2,0.5,1.7,1c0.8,1.2,0.9,2.7,0,3.9c-0.4,0.5-1,0.9-1.7,1
			c-0.5,0.1-1.5,0.2-3,0.2h-0.8v5.5h-1.2L152.9,143z M154.1,144.2v4l2,0c0.6,0,1.2,0,1.8-0.2c0.4-0.1,0.7-0.4,0.9-0.7
			c0.2-0.3,0.3-0.7,0.3-1.1c0-0.4-0.1-0.8-0.3-1.1c-0.2-0.3-0.5-0.6-0.8-0.7c-0.3-0.1-0.9-0.2-1.7-0.2L154.1,144.2z"/>
		<path class="st0" d="M162.5,143h1.2v11.8h-1.2V143z"/>
		<path class="st0" d="M171.2,143l5.5,11.8h-1.3l-1.9-3.9h-5.1l-1.8,3.9h-1.3l5.6-11.8H171.2z M171.1,145.6l-2,4.3h4L171.1,145.6z"
			/>
		<path class="st0" d="M178.6,154.8V143h0.3l7.8,9v-9h1.2v11.8h-0.3l-7.8-8.9v8.9L178.6,154.8z"/>
		<path class="st0" d="M189.5,144.2V143h6.5v1.2h-2.6v10.6h-1.2v-10.6H189.5z"/>
		<path class="st0" d="M197.5,143h1.2v11.8h-1.2V143z"/>
		<path class="st0" d="M206,143h5.9v1.2h-4.7v3.7h4.7v1.2h-4.7v5.8H206V143z"/>
		<path class="st0" d="M214,143h2.4c1.3,0,2.2,0.1,2.7,0.2c0.7,0.1,1.3,0.5,1.7,1c0.4,0.5,0.7,1.2,0.7,1.9c0,0.6-0.1,1.2-0.4,1.7
			c-0.3,0.5-0.8,0.9-1.3,1.1c-0.6,0.2-1.3,0.4-2.3,0.4l4.2,5.5h-1.5l-4.2-5.5h-0.7v5.5H214L214,143z M215.2,144.2v4l2,0
			c0.6,0,1.2,0,1.7-0.2c0.4-0.1,0.7-0.4,0.9-0.7c0.2-0.3,0.3-0.7,0.3-1.1c0-0.4-0.1-0.8-0.3-1.1c-0.2-0.3-0.5-0.6-0.8-0.7
			c-0.3-0.1-0.9-0.2-1.7-0.2L215.2,144.2z"/>
		<path class="st0" d="M223.7,143h1.2v11.8h-1.2V143z"/>
		<path class="st0" d="M239,145l-0.9,0.9c-0.6-0.6-1.4-1.1-2.2-1.5c-0.7-0.3-1.5-0.5-2.3-0.5c-0.9,0-1.8,0.2-2.6,0.7
			c-0.8,0.4-1.5,1.1-1.9,1.8c-0.5,0.7-0.7,1.6-0.7,2.5c0,0.9,0.2,1.8,0.7,2.5c0.5,0.8,1.2,1.4,2,1.9c0.8,0.5,1.8,0.7,2.8,0.7
			c1.1,0,2.2-0.3,3.1-1c0.8-0.7,1.4-1.6,1.5-2.7h-3.8v-1.1h5.1c0,1.8-0.6,3.3-1.6,4.3c-1.1,1.1-2.5,1.6-4.3,1.6
			c-2.2,0-3.9-0.7-5.2-2.2c-1-1.1-1.5-2.5-1.5-4c0-1.1,0.3-2.2,0.8-3.1c0.5-0.9,1.3-1.7,2.3-2.3c1-0.6,2.2-0.8,3.3-0.8
			c1,0,1.9,0.2,2.8,0.5C237.4,143.7,238.3,144.3,239,145z"/>
		<path class="st0" d="M247.6,142.8c1.7,0,3.3,0.6,4.5,1.8c2.4,2.4,2.4,6.3,0,8.8c-1.2,1.2-2.8,1.8-4.4,1.8c-1.7,0-3.3-0.6-4.4-1.8
			c-1.2-1.1-1.8-2.7-1.8-4.3c0-1.1,0.3-2.2,0.8-3.2C243.3,143.9,245.4,142.7,247.6,142.8L247.6,142.8z M247.6,143.9
			c-0.9,0-1.7,0.2-2.5,0.7c-0.8,0.4-1.4,1.1-1.8,1.8c-0.4,0.8-0.7,1.7-0.7,2.6c0,2.7,2.2,5,4.9,5c0,0,0,0,0.1,0
			c0.9,0,1.8-0.2,2.5-0.7c0.8-0.4,1.4-1.1,1.8-1.8c0.4-0.8,0.7-1.7,0.7-2.6c0-0.9-0.2-1.8-0.7-2.5c-0.4-0.8-1.1-1.4-1.8-1.8
			C249.4,144.1,248.5,143.9,247.6,143.9L247.6,143.9z"/>
		<path class="st0" d="M256.3,143h2.4c1.3,0,2.2,0.1,2.7,0.2c0.7,0.1,1.3,0.5,1.7,1c0.4,0.5,0.7,1.2,0.7,1.9c0,0.6-0.1,1.2-0.4,1.7
			c-0.3,0.5-0.8,0.9-1.3,1.1c-0.6,0.2-1.3,0.4-2.3,0.4l4.2,5.5h-1.5l-4.2-5.5h-0.7v5.5h-1.2L256.3,143z M257.5,144.2v4l2,0
			c0.6,0,1.2,0,1.7-0.2c0.4-0.1,0.7-0.4,0.9-0.7c0.2-0.3,0.3-0.7,0.3-1.1c0-0.4-0.1-0.8-0.3-1.1c-0.2-0.3-0.5-0.6-0.8-0.7
			c-0.3-0.1-0.9-0.2-1.7-0.2L257.5,144.2z"/>
		<path class="st0" d="M266,143h1.2v11.8H266V143z"/>
		<path class="st0" d="M269.9,143h5.9v1.2h-4.7v3.7h4.7v1.2h-4.7v5.8h-1.2V143z"/>
		<path class="st0" d="M277.9,143h6.8v1.2h-5.6v3.7h5.5v1.2h-5.5v4.6h5.5v1.2h-6.7L277.9,143z"/>
		<path class="st0" d="M286.8,143h2.4c1.3,0,2.2,0.1,2.7,0.2c0.7,0.1,1.3,0.5,1.7,1c0.4,0.5,0.7,1.2,0.7,1.9c0,0.6-0.1,1.2-0.4,1.7
			c-0.3,0.5-0.8,0.9-1.3,1.1c-0.6,0.2-1.3,0.4-2.3,0.4l4.2,5.5h-1.5l-4.2-5.5h-0.7v5.5h-1.2V143z M287.9,144.2v4l2,0
			c0.6,0,1.2,0,1.7-0.2c0.4-0.1,0.7-0.4,0.9-0.7c0.2-0.3,0.3-0.7,0.3-1.1c0-0.4-0.1-0.8-0.3-1.1c-0.2-0.3-0.5-0.6-0.8-0.7
			c-0.3-0.1-0.9-0.2-1.7-0.2L287.9,144.2z"/>
		<path class="st0" d="M296.5,143h1.2v11.8h-1.2V143z"/>
		<polygon class="st0" points="150.1,8.5 212,80.4 150.1,24 88.2,80.4 		"/>
	</g>
</g>
</svg>
