<svg id="Ebene_1" data-name="Ebene 1" xmlns="http://www.w3.org/2000/svg" viewBox="0 0 239.53 171.62"><defs><style>.cls-1{fill:#234054;}.cls-1,.cls-2,.cls-3,.cls-4,.cls-5,.cls-6,.cls-7{fill-rule:evenodd;}.cls-2{fill:#328bb6;}.cls-3{fill:#0a5f8a;}.cls-4{fill:#ecf7fd;}.cls-5{fill:#fff;}.cls-6{fill:#ade8ff;}.cls-7{fill:#6cb6dc;}</style></defs><title>iceage</title><path class="cls-1" d="M51.64,88.86s-29.37,0-43.87.88-7.4,9.18,10.66,14.21-4.74,17.76-10.36,21-.89,9.18,45.29,15.69,11.55,18.95,2.37,23.68,62.76,9.77,82.59,5.92,71.93-11.84,43.52-16,18.95,0,39.67-16.58,29.6-24.28-6.76-26c-24.23-4.51,44-36.63-25.36-29.3S51.64,88.86,51.64,88.86Z"/><path class="cls-2" d="M143,0l19.66,5s14.69,28.74,17.72,32.85,10.26,17.94,11.34,23.77S188,73.47,188.37,74.12s-.22,6.48-2.7,7.35-3.89,5-3.35,5.08,6.59,4.21,7.89,6.05.86,16.53.76,17.5-13,17.61-13,17.61,0,3-1.08,4.21-6.16,6.59-6.7,6.81-4.11,1.3-4.11,1.3-13.51,6.16-15.34,5.73-10.48-2.7-11-2.92-9.4,1.08-9.4,1.08l-12.75-3-11,2.59L71.14,131.82S60,116.9,58.39,115.61,48,110.75,41.54,101.89a74.06,74.06,0,0,1-8.75-14.8c-.32-.54-.65-9.62.11-11.24a18,18,0,0,1,2.54-3.57s-.05-3.19,0-3.57,10.32-8.16,12.15-9.24S66.44,55.7,87,42.51,131.91,11.83,143,0Z"/><path class="cls-3" d="M187.13,115.68c-2.84,3.84-6.5,8.61-8.19,10.81l-16.38-11.74-35.5,7.87,4-21.27,36.3,7.78a202.78,202.78,0,0,0,19.82,6.54ZM63.69,122a72.66,72.66,0,0,0-5.3-6.41,11,11,0,0,0-1.26-.79L70.93,99.2,92.54,104,63.69,122ZM41.15,101.35a73.3,73.3,0,0,1-8.36-14.27c-.26-.43-.52-6.31-.23-9.48,8.09,1.6,16.2,3.51,16.2,3.51l-7.62,20.24Z"/><path class="cls-3" d="M178.57,127l-.57.75s0,3-1.08,4.21-6.16,6.59-6.7,6.81-4.11,1.3-4.11,1.3-13.51,6.16-15.34,5.73-10.48-2.7-11-2.92-9.4,1.08-9.4,1.08l-12.75-3-11,2.59L71.14,131.82l-1.43-1.91c7.87-3.49,16.2-7.37,16.88-7.5,1.19-.22,17.07-10.48,17.29-9s5.62,12.32,6.48,13.51,10.16,4.54,11.24,4.54a28.42,28.42,0,0,0,4.92-1.08c.92-.27.54-7.78.54-7.78s1.84,4,5.51,5.08,28,1.3,30.9,1.3c1.43,0,8.38-1,15.11-2Z"/><path class="cls-4" d="M143,0l19.66,5s14.69,28.74,17.72,32.85,10.26,17.94,11.34,23.77S188,73.47,188.37,74.12s-.22,6.48-2.7,7.35-3.89,5-3.35,5.08a40.35,40.35,0,0,1,7.23,5.3c-2.77-2-10.27,2.17-11.45,6.9-1.3,5.19-11.24,6.05-14.69,3.89S152.6,91,145.69,91.83s-25.07,3-29.6,2.81,6.48-14.91,4.54-13.18-10.37,5.62-11.67,6.7-9.29.43-16.21-.65-5.19,2.16-9.29,6.05S80,88.38,75.68,87.51,63.57,89,60.12,91.73,56,92.37,52.45,93s-10.75-2.48-13.34-5S34,89.63,34,89.64c-.72-1.48-1.07-2.36-1.19-2.56-.32-.54-.65-9.62.11-11.24a18,18,0,0,1,2.54-3.57s-.05-3.19,0-3.57,10.32-8.16,12.15-9.24S66.44,55.7,87,42.51,131.91,11.83,143,0Z"/><path class="cls-5" d="M98,88.22c-1.74-.2-3.53-.44-5.25-.71-5.57-.87-5.53,1.06-7.45,3.88L79.83,92.7c-1-1.92-1.85-4.73-4.16-5.19-4.32-.87-12.1,1.51-15.56,4.21S56,92.37,52.45,93c-3,.54-8.5-1.56-11.74-3.72C38,87.21,35.78,85,35.17,82.88c-.95-3.2.38-10,1.77-15.49,1.83-1.47,5-3.86,7.42-5.66l20,9.91.32,12.64,32.85-.65L117.07,65.7l15.45,5.19s-20.31,13.18-21.18,13.72c-.28.17-5.81,1.68-13.34,3.61Z"/><path class="cls-5" d="M174.37,27.34c2.65,4.92,5,9.09,6,10.47,3,4.11,10.26,17.94,11.34,23.77S188,73.47,188.37,74.12s-.22,6.48-2.7,7.35a4,4,0,0,0-1.41.9c-12.1-2.2-23-4.35-23-4.35L132.7,56.59,153.91,32s9.49-2.24,20.46-4.65Z"/><path class="cls-6" d="M43.89,62.08c1.68-1.24,3.11-2.26,3.7-2.6,1.84-1.08,18.85-3.78,39.38-17,9-5.77,18.73-12.38,27.77-19l-3.61,6.94L68.12,59,43.89,62.08Z"/><path class="cls-6" d="M189.33,91.62l.23.22c-2.77-2-10.27,2.17-11.45,6.9-1.3,5.19-11.24,6.05-14.69,3.89a22.26,22.26,0,0,1-2.8-2.31,6.07,6.07,0,0,0,1.95-3.73c0-3.46-.86-4.32-3-8.64S161.26,78,161.26,78L189.2,91.63Zm-64.77,2.55a80,80,0,0,1-8.47.47c-3.5-.17,2.26-9,4.18-12.17l8.14,1.16s-4.32,6.48-3.89,10.37a1.06,1.06,0,0,0,0,.16Zm-5.17-11.83c-3,1.93-9.33,4.89-10.43,5.81-1.3,1.08-9.29.43-16.21-.65s-5.19,2.16-9.29,6.05S80,88.38,75.68,87.51,63.57,89,60.12,91.73,56,92.37,52.45,93s-10.75-2.48-13.34-5S34,89.63,34,89.64c-.72-1.48-1.07-2.36-1.19-2.56-.32-.54-.65-9.62.11-11.24a18,18,0,0,1,2.54-3.57s-.05-3.19,0-3.57,4.83-4,8.46-6.64L41.11,80.61s14.26.86,16.85,1.3a52.63,52.63,0,0,0,17.72.43c8.64-1.3,28.52-2.16,28.52-2.16l15.18,2.17Z"/><path class="cls-5" d="M114.74,23.54c10.94-8,20.86-16,27.17-22.41,3,5.79,5.37,12.9,4.22,16.82-2.16,7.35-38.35,38.56-40.66,40.8L68.12,59l43-28.52,3.61-6.94Z"/><path class="cls-7" d="M132.7,56.59,163.36,37.2s4.56-12.38,1.75-16.7-9-10.18-9-10.18L132.7,56.59Z"/><path class="cls-6" d="M143,0l19.66,5,2,3.83a42.11,42.11,0,0,1-8.51,1.51s-21.26,45-23.42,46.27-27.23,2.16-27.23,2.16,30.68-29.39,32-35.44c.73-3.39.64-11.66.42-18.29,1.92-1.76,3.64-3.44,5.12-5Z"/><path class="cls-2" d="M143,0l19.66,5s14.69,28.74,17.72,32.85,10.26,17.94,11.34,23.77S188,73.47,188.37,74.12s-.22,6.48-2.7,7.35c-2.33.81-3.71,4.47-3.43,5,0,0-6-10.47-6.46-12.63S166.92,54,165.41,46s-9.29-35.65-9.29-35.65L143,0Z"/><path class="cls-3" d="M163.16,5.94c1.71,3.34,7.5,14.57,12,22.87l-11.4,10c-1.29-5.17-3-11.65-4.51-17.12,1.31-5.44,2.67-11,3.9-15.75Zm25.2,68.11a.18.18,0,0,0,0,.06c.32.65-.22,6.48-2.7,7.35-2.33.81-3.71,4.47-3.43,5,0,0-6-10.47-6.46-12.63-.23-1.16-2.78-6.83-5.32-13.06l17.9,13.27Z"/></svg>